<?xml version="1.0" encoding="iso-8859-1"?>
<!-- Generator: Adobe Illustrator 19.0.0, SVG Export Plug-In . SVG Version: 6.00 Build 0)  -->
<svg version="1.1" id="Capa_1" xmlns="http://www.w3.org/2000/svg" xmlns:xlink="http://www.w3.org/1999/xlink" x="0px" y="0px"
	 viewBox="0 0 505.085 505.085" style="enable-background:new 0 0 505.085 505.085;" xml:space="preserve">
<g>
	<g>
		<path d="M49.745,304.28l-17.067,17.067c-42.667,40.533-42.667,108.8-2.133,151.467c40.533,42.667,108.8,42.667,151.467,2.133
			c6.4-6.4,12.8-12.8,19.2-19.2L49.745,304.28z"/>
	</g>
</g>
<g>
	<g>
		<path d="M493.479,272.28l-87.467-38.4l-164.267,115.2l-12.8-17.067l162.133-113.067l-21.333-70.4c-2.133-6.4-6.4-10.667-12.8-12.8
			l-72.533-23.467l-102.4,170.667l-19.2-10.667L269.478,95.213l-36.267-83.2c-6.4-14.933-29.867-17.067-38.4,0l-134.4,281.6
			L211.878,445.08l281.6-134.4C508.412,304.28,508.412,280.813,493.479,272.28z"/>
	</g>
</g>
<g>
</g>
<g>
</g>
<g>
</g>
<g>
</g>
<g>
</g>
<g>
</g>
<g>
</g>
<g>
</g>
<g>
</g>
<g>
</g>
<g>
</g>
<g>
</g>
<g>
</g>
<g>
</g>
<g>
</g>
</svg>
